<?xml version="1.0" standalone="no"?>
<!DOCTYPE svg PUBLIC "-//W3C//DTD SVG 20010904//EN"
 "http://www.w3.org/TR/2001/REC-SVG-20010904/DTD/svg10.dtd">
<svg version="1.0" xmlns="http://www.w3.org/2000/svg"
 width="140.000000pt" height="33.000000pt" viewBox="0 0 140.000000 33.000000"
 preserveAspectRatio="xMidYMid meet">

<g transform="translate(0.000000,33.000000) scale(0.100000,-0.100000)"
fill="#000000" stroke="none">
<path d="M200 259 c-13 -6 -34 -18 -45 -27 -19 -16 -19 -16 -6 1 12 16 10 17
-35 17 -27 0 -58 -7 -68 -15 -19 -15 -19 -15 2 -35 11 -11 35 -20 52 -20 65 0
22 -73 -70 -118 -23 -11 -21 -12 19 -7 24 3 55 12 70 19 22 12 29 12 51 -4 39
-27 67 -32 105 -20 39 13 75 57 75 92 0 32 58 58 127 58 49 0 63 9 63 41 0 5
-50 9 -110 9 l-110 0 16 -27 17 -28 -24 27 c-23 26 -67 49 -92 47 -7 0 -23 -5
-37 -10z m70 -13 c0 -3 -4 -8 -10 -11 -5 -3 -10 -1 -10 4 0 6 5 11 10 11 6 0
10 -2 10 -4z m-82 -26 c-7 -10 -14 -17 -17 -15 -4 4 18 35 25 35 2 0 -1 -9 -8
-20z m113 3 c13 -16 12 -17 -3 -4 -10 7 -18 15 -18 17 0 8 8 3 21 -13z m-36
-33 c3 -5 1 -10 -4 -10 -6 0 -11 5 -11 10 0 6 2 10 4 10 3 0 8 -4 11 -10z
m-72 -14 c9 -7 17 -17 17 -21 0 -11 -32 -34 -47 -35 -7 0 -13 5 -13 11 0 5 5
7 10 4 14 -9 42 14 34 27 -3 5 -16 13 -28 18 -12 5 -15 9 -6 9 8 0 23 -6 33
-13z m137 -21 c0 -37 -13 -44 -42 -21 -26 19 -22 34 7 28 16 -3 25 0 25 8 0 7
-7 10 -16 6 -8 -3 -12 -2 -9 4 15 24 35 9 35 -25z m-78 0 c0 -5 -5 -10 -12
-11 -7 -2 -6 -1 1 3 8 4 7 8 -2 15 -11 8 -11 9 -1 6 8 -2 14 -8 14 -13z m-22
-60 c0 -40 -8 -43 -41 -16 -24 20 -24 20 -4 35 32 25 45 19 45 -19z m55 23
c31 -14 31 -22 3 -42 -32 -23 -38 -20 -38 19 0 39 0 39 35 23z"/>
</g>
</svg>
