<?xml version="1.0" standalone="no"?>
<!DOCTYPE svg PUBLIC "-//W3C//DTD SVG 20010904//EN"
 "http://www.w3.org/TR/2001/REC-SVG-20010904/DTD/svg10.dtd">
<svg version="1.0" xmlns="http://www.w3.org/2000/svg"
 width="420.000000pt" height="99.000000pt" viewBox="0 0 420.000000 99.000000"
 preserveAspectRatio="xMidYMid meet">
<metadata>
Created by potrace 1.10, written by Peter Selinger 2001-2011
</metadata>
<g transform="translate(0.000000,99.000000) scale(0.100000,-0.100000)"
fill="#000000" stroke="none">
<path fill="red" d="M630 778 c-14 -6 -52 -24 -84 -40 -52 -24 -62 -26 -76 -13 -12 11
-47 14 -148 14 l-133 -1 -31 -34 c-17 -19 -39 -34 -50 -34 -13 0 -18 -8 -18
-30 0 -24 4 -30 21 -30 12 0 36 -16 53 -35 32 -34 34 -35 112 -35 89 0 101 5
105 40 2 14 9 25 14 25 15 0 18 -44 3 -50 -10 -4 -12 -24 -10 -81 l4 -76 -44
-43 c-25 -24 -63 -54 -84 -68 -21 -13 -50 -35 -64 -47 -34 -30 -65 -45 -135
-65 -48 -14 -56 -19 -40 -26 22 -8 124 0 140 11 6 4 28 10 50 14 84 15 195 67
195 91 0 25 20 26 29 2 10 -26 78 -87 97 -87 6 0 17 -6 23 -14 7 -8 30 -17 52
-21 21 -4 41 -11 45 -16 9 -16 87 -10 143 12 107 40 138 64 198 152 27 39 33
58 39 129 3 46 6 95 6 110 -1 15 3 30 8 33 10 6 14 -7 11 -37 -3 -22 8 -23 45
-3 16 8 38 15 49 15 11 0 32 11 46 24 24 23 39 26 165 34 77 5 153 8 170 5 29
-4 32 -2 48 36 9 23 16 54 16 70 l0 28 -322 -1 c-247 -1 -322 -4 -325 -13 -3
-7 0 -13 6 -13 16 0 51 -37 51 -54 0 -7 7 -19 15 -26 16 -13 21 -50 7 -50 -9
0 -52 55 -52 67 -1 19 -59 71 -100 91 -118 54 -190 66 -250 40z m48 -97 c2
-30 -2 -59 -7 -64 -8 -8 -11 2 -11 34 0 39 -4 47 -26 57 -31 15 -22 34 14 30
25 -3 27 -7 30 -57z m120 42 c2 -7 -3 -13 -12 -13 -13 0 -16 -12 -16 -60 0
-33 -1 -63 -2 -67 -2 -5 7 -9 20 -11 12 -2 22 1 22 7 0 6 11 11 23 11 13 0 32
9 42 20 17 19 17 21 -7 43 -14 13 -33 27 -42 30 -23 9 -20 27 4 27 29 0 90
-58 90 -85 0 -13 -8 -26 -17 -29 -30 -12 -80 -42 -98 -59 -20 -21 -29 -21 -49
-1 -12 12 -16 37 -16 103 0 48 3 91 7 95 11 10 46 3 51 -11z m-328 -28 c0 -9
-6 -18 -14 -21 -8 -3 -17 -17 -20 -30 -7 -26 -26 -24 -26 2 0 21 32 63 48 64
6 0 12 -7 12 -15z m130 0 c0 -8 -6 -15 -13 -15 -18 0 -45 -34 -49 -62 -2 -12
-11 -24 -20 -26 -30 -6 -22 42 15 82 33 37 67 47 67 21z m-4 -120 c5 -11 16
-13 45 -9 34 6 39 4 39 -14 0 -12 -9 -22 -22 -25 -23 -6 -58 8 -58 23 0 6 -9
10 -19 10 -21 0 -34 13 -24 24 11 11 34 6 39 -9z m-121 -5 c3 -5 16 -10 29
-10 12 0 35 -13 51 -30 16 -16 34 -30 42 -30 18 0 35 -37 28 -60 -3 -10 -14
-21 -23 -24 -10 -3 -32 -19 -49 -35 -17 -15 -42 -31 -55 -33 -12 -3 -30 -7
-38 -9 -16 -4 -26 32 -16 58 6 14 9 14 25 -2 13 -11 25 -14 34 -8 23 14 77 61
77 68 0 4 -17 22 -37 41 -38 34 -67 43 -78 24 -10 -16 -25 -1 -25 24 0 33 21
49 35 26z m511 -57 c11 -57 -1 -132 -24 -155 -21 -22 -27 -21 -77 12 -16 11
-42 26 -57 35 -23 13 -28 22 -28 55 0 32 4 40 19 40 10 0 25 -9 32 -20 13 -18
18 -19 52 -8 31 10 37 16 37 40 0 34 -2 34 -36 3 -32 -30 -54 -32 -54 -5 0 11
4 20 9 20 5 0 16 6 23 13 8 6 23 17 33 23 29 16 63 -9 71 -53z m-232 -32 l28
-29 -24 -21 c-15 -15 -33 -21 -52 -19 -41 4 -47 28 -7 28 21 0 31 5 31 15 0
10 -10 15 -30 15 -35 0 -40 17 -7 30 32 13 31 13 61 -19z m-72 -114 c11 -17 9
-169 -2 -187 -22 -34 -166 50 -185 109 -5 16 1 24 27 36 45 21 78 41 91 54 14
14 58 5 69 -12z m127 9 c7 -8 37 -25 67 -37 62 -26 67 -42 29 -88 -25 -29
-119 -81 -148 -81 -21 0 -27 22 -27 106 0 61 4 78 20 94 24 24 43 25 59 6z
m-399 -47 c0 -38 -24 -35 -28 4 -2 19 1 27 12 27 11 0 16 -10 16 -31z"/>
<path d="M1761 688 c-4 -13 -26 -72 -49 -133 -93 -254 -111 -308 -106 -316 8
-13 40 -11 51 4 5 6 17 33 27 60 10 26 26 52 36 57 10 6 53 10 94 10 89 0 109
-13 127 -85 9 -35 17 -47 36 -51 46 -12 47 8 3 127 -23 63 -61 166 -85 229
l-42 115 -42 3 c-35 3 -42 0 -50 -20z m72 -105 c33 -79 57 -155 52 -164 -9
-14 -145 -11 -150 4 -5 10 45 163 61 189 10 16 21 7 37 -29z"/>
<path d="M2077 703 c-4 -3 -7 -109 -7 -235 0 -202 2 -229 16 -235 37 -14 49
10 45 89 -2 59 1 78 14 91 37 37 72 18 160 -89 70 -85 81 -94 111 -94 19 0 34
5 34 11 0 7 -19 33 -42 58 -123 134 -125 139 -82 167 54 36 74 125 39 178 -32
48 -83 66 -188 66 -51 0 -97 -3 -100 -7z m218 -74 c13 -13 20 -32 20 -60 0
-34 -6 -46 -33 -70 -26 -23 -42 -29 -80 -29 -26 0 -53 5 -60 12 -7 7 -12 41
-12 85 0 58 3 74 18 82 26 16 123 2 147 -20z"/>
<path d="M2541 680 c-128 -93 -50 -223 145 -243 61 -7 94 -32 94 -72 0 -68
-80 -107 -173 -84 -29 7 -61 19 -72 26 -32 21 -55 16 -55 -11 0 -17 10 -31 34
-45 28 -17 50 -21 129 -21 106 0 136 11 179 65 32 41 31 117 -3 149 -29 28
-99 56 -139 56 -41 0 -109 29 -120 51 -40 74 46 134 153 108 28 -8 63 -19 76
-26 51 -25 58 27 9 57 -27 16 -51 20 -124 20 -85 0 -94 -2 -133 -30z"/>
<path d="M2930 700 c0 -5 0 -109 0 -230 0 -121 0 -224 0 -230 0 -6 57 -10 150
-10 128 0 152 2 157 16 11 29 -14 38 -105 35 -49 -1 -101 1 -116 5 l-27 6 3
87 3 86 118 3 c95 2 119 6 124 18 11 29 -14 38 -96 35 -43 -1 -95 1 -115 4
l-36 7 0 58 0 58 36 7 c20 3 72 5 115 4 82 -3 107 6 96 35 -5 14 -29 16 -157
16 -93 0 -150 -4 -150 -10z"/>
<path d="M3314 697 c-2 -7 -3 -114 -2 -237 l3 -225 25 0 25 0 5 184 c3 126 9
186 16 188 7 2 35 -40 62 -94 28 -54 72 -138 99 -188 l48 -90 40 0 40 0 0 235
0 235 -27 3 c-18 2 -28 -1 -29 -10 0 -7 0 -78 1 -158 1 -157 -3 -188 -26 -169
-8 6 -52 85 -99 175 l-86 164 -45 0 c-27 0 -47 -5 -50 -13z"/>
<path d="M3775 698 c-3 -8 -4 -115 -3 -238 l3 -225 155 0 c153 0 155 0 158 22
4 26 6 25 -119 23 -42 -1 -88 2 -103 6 l-27 6 3 87 3 86 120 5 c115 5 120 6
123 28 4 25 6 24 -119 22 -42 -1 -88 2 -102 5 -25 7 -27 11 -27 65 0 54 2 58
27 65 14 3 60 6 102 5 125 -2 123 -3 119 23 -3 22 -6 22 -156 25 -118 2 -154
0 -157 -10z"/>
</g>
</svg>
